<?xml version="1.0" encoding="utf-8"?><svg fill="none" viewBox="0 0 511 255" xmlns="http://www.w3.org/2000/svg"><defs /><g transform="matrix(1,0,0,1.333,0,-32.5)" id="BG" /><g transform="matrix(1,0,0,1,255.499,243.093)" id="Path 3740"><g id="Path 3740"><path fill="#caced5" fill-opacity="1" d="M-252.828,-4.637L252.828,-4.637C254.24,-4.665,255.408,-3.543,255.436,-2.131C255.464,-0.718,254.342,0.45,252.93,0.478C252.896,0.479,252.862,0.479,252.828,0.478L174.795,0.478C174.818,1.455,174.045,2.266,173.068,2.289C172.091,2.312,171.279,1.539,171.256,0.562C171.255,0.534,171.255,0.506,171.256,0.478L142.956,0.478C142.956,2.029,141.699,3.286,140.148,3.286C138.597,3.286,137.339,2.029,137.339,0.478L116.897,0.478C116.897,2.773,115.036,4.634,112.741,4.634C110.446,4.634,108.585,2.773,108.585,0.478L33.105,0.478C33.128,1.455,32.355,2.266,31.378,2.289C30.401,2.312,29.589,1.539,29.566,0.562C29.565,0.534,29.565,0.506,29.566,0.478L1.266,0.478C1.266,2.029,0.009,3.286,-1.542,3.286C-3.093,3.286,-4.351,2.029,-4.351,0.478L-24.793,0.478C-24.791,2.773,-26.65,4.636,-28.945,4.638C-31.24,4.64,-33.103,2.781,-33.105,0.486C-33.105,0.484,-33.105,0.481,-33.105,0.478L-108.585,0.478C-108.562,1.455,-109.335,2.266,-110.312,2.289C-111.289,2.312,-112.101,1.539,-112.124,0.562C-112.125,0.534,-112.125,0.506,-112.124,0.478L-140.424,0.478C-140.424,2.029,-141.681,3.286,-143.232,3.286C-144.783,3.286,-146.041,2.029,-146.041,0.478L-166.485,0.478C-166.485,2.773,-168.346,4.634,-170.641,4.634C-172.936,4.634,-174.797,2.773,-174.797,0.478L-252.828,0.478C-254.24,0.506,-255.408,-0.617,-255.436,-2.029C-255.464,-3.442,-254.342,-4.609,-252.93,-4.637C-252.896,-4.638,-252.862,-4.638,-252.828,-4.637Z" /></g></g><g transform="matrix(1,0,0,1,255.114,190.98)" id="Path 3737"><g id="Path 3737"><g fill="#caced5" fill-opacity="1"><g transform="translate(136.897,47.3)"><g transform="scale(0,0)"><animateTransform repeatCount="indefinite" type="scale" attributeName="transform" dur="5.967s" begin="0s" calcMode="spline" values="0 0; 1 1; 1 1; 0 0" keyTimes="0; 0.089; 0.855; 1" keySplines="0.03 0 0.35 1; 0.03 0 0.35 1; 0.03 0 0.35 1" fill="freeze" /><g id="Group 2" transform="translate(-136.897,-47.3)"><path d="M132.561,12.116L132.561,47.474L127.039,47.474L127.039,14.029C110.329,13.971,102.207,5.64,102.207,-11.017L102.207,-23.107C102.207,-29.881,107.698,-35.372,114.472,-35.372C121.246,-35.372,126.737,-29.881,126.737,-23.107L126.737,-23.107L126.737,-11.239C126.737,-10.207,127.038,-10.111,127.038,-11.245L127.038,-35.214C127.038,-41.988,132.529,-47.479,139.303,-47.479C146.077,-47.479,151.568,-41.988,151.568,-35.214L151.568,-19.007C156.949,-23.119,164.644,-22.092,168.756,-16.711C170.391,-14.572,171.277,-11.954,171.276,-9.262L171.276,0.381C171.276,13.53,165.096,21.898,151.568,22.745L151.568,47.473L146.045,47.473L146.045,18.683C146.045,17.083,147.752,17.302,148.825,17.302C160.574,17.302,165.754,12.117,165.754,0.381L165.754,-9.262C165.799,-12.985,162.816,-16.039,159.093,-16.084C155.37,-16.129,152.316,-13.146,152.271,-9.423C152.27,-9.369,152.27,-9.316,152.271,-9.262L152.271,-0.499C152.271,6.978,146.046,5.434,146.046,-0.043L146.046,-35.214C146.091,-38.937,143.108,-41.991,139.385,-42.036C135.662,-42.081,132.608,-39.099,132.563,-35.376C132.562,-35.322,132.562,-35.268,132.563,-35.214L132.563,-8.559C132.563,-7.342,132.963,-4.978,131.182,-4.978C128.818,-4.978,126.351,-4.904,123.999,-5.045C121.816,-5.175,121.399,-5.61,121.276,-7.786C121.217,-8.857,121.215,-9.946,121.215,-11.018L121.215,-23.108C121.26,-26.831,118.277,-29.885,114.554,-29.93C110.831,-29.975,107.777,-26.993,107.732,-23.27C107.731,-23.216,107.731,-23.162,107.732,-23.108L107.732,-11.018C107.732,2.697,113.531,8.505,127.254,8.505L131.173,8.505C132.916,8.505,132.562,10.792,132.562,12.115L132.561,12.116ZM112.594,-13.806C113.274,-13.804,113.825,-13.253,113.827,-12.573L113.827,-9.65C113.822,-8.969,113.267,-8.421,112.586,-8.426C111.912,-8.431,111.367,-8.976,111.362,-9.65L111.362,-12.573C111.364,-13.253,111.914,-13.804,112.594,-13.806L112.594,-13.806ZM117.161,-3.759C117.841,-3.757,118.392,-3.206,118.394,-2.526L118.394,0.401C118.389,1.082,117.834,1.631,117.153,1.626C116.479,1.621,115.934,1.075,115.929,0.401L115.929,-2.522C115.928,-3.204,116.479,-3.757,117.161,-3.759L117.161,-3.759ZM160.502,-9.97C161.182,-9.968,161.733,-9.417,161.735,-8.737L161.735,-5.814C161.73,-5.133,161.175,-4.585,160.494,-4.59C159.82,-4.595,159.274,-5.14,159.269,-5.814L159.269,-8.737C159.271,-9.417,159.822,-9.968,160.502,-9.97L160.502,-9.97ZM156.072,-2.525C156.752,-2.523,157.303,-1.972,157.305,-1.292L157.305,1.631C157.3,2.312,156.745,2.86,156.064,2.855C155.39,2.85,154.844,2.305,154.839,1.631L154.839,-1.292C154.841,-1.972,155.392,-2.523,156.072,-2.525L156.072,-2.525ZM152.646,8.116C153.326,8.118,153.877,8.669,153.879,9.349L153.879,12.272C153.874,12.953,153.319,13.501,152.638,13.496C151.964,13.491,151.418,12.946,151.413,12.272L151.413,9.349C151.415,8.669,151.966,8.118,152.646,8.116L152.646,8.116ZM142.233,-22.848C142.913,-22.846,143.464,-22.295,143.466,-21.615L143.466,-18.692C143.461,-18.011,142.906,-17.463,142.225,-17.468C141.551,-17.473,141.005,-18.018,141,-18.692L141,-21.615C141.002,-22.295,141.553,-22.846,142.233,-22.848L142.233,-22.848ZM142.233,-13.44C142.913,-13.438,143.464,-12.887,143.466,-12.207L143.466,-9.284C143.461,-8.603,142.906,-8.055,142.225,-8.06C141.551,-8.065,141.005,-8.61,141,-9.284L141,-12.207C141.002,-12.887,141.553,-13.438,142.233,-13.44L142.233,-13.44ZM142.233,-4.032C142.913,-4.03,143.464,-3.479,143.466,-2.799L143.466,0.124C143.461,0.805,142.906,1.353,142.225,1.348C141.551,1.343,141.005,0.798,141,0.124L141,-2.799C141.002,-3.479,141.553,-4.03,142.233,-4.032L142.233,-4.032ZM142.233,5.376C142.913,5.378,143.464,5.929,143.466,6.609L143.466,9.532C143.461,10.213,142.906,10.761,142.225,10.756C141.551,10.751,141.005,10.206,141,9.532L141,6.609C141.002,5.929,141.553,5.378,142.233,5.376L142.233,5.376ZM142.233,14.784C142.913,14.786,143.464,15.337,143.466,16.017L143.466,18.94C143.461,19.621,142.906,20.169,142.225,20.164C141.551,20.159,141.005,19.614,141,18.94L141,16.017C141.002,15.337,141.553,14.786,142.233,14.784L142.233,14.784ZM142.233,24.192C142.913,24.194,143.464,24.745,143.466,25.425L143.466,28.348C143.461,29.029,142.906,29.577,142.225,29.572C141.551,29.567,141.005,29.022,141,28.348L141,25.425C141.002,24.745,141.553,24.194,142.233,24.192L142.233,24.192ZM142.233,-32.256C142.913,-32.254,143.464,-31.703,143.466,-31.023L143.466,-28.099C143.461,-27.418,142.906,-26.869,142.225,-26.874C141.551,-26.879,141.005,-27.425,141,-28.099L141,-31.022C141.001,-31.703,141.552,-32.254,142.233,-32.256L142.233,-32.256ZM137.255,-16.134C137.935,-16.132,138.486,-15.581,138.488,-14.901L138.488,-11.978C138.483,-11.297,137.928,-10.749,137.247,-10.754C136.573,-10.759,136.027,-11.304,136.022,-11.978L136.022,-14.899C136.023,-15.58,136.575,-16.133,137.256,-16.134L137.255,-16.134ZM137.255,-6.726C137.935,-6.724,138.486,-6.173,138.488,-5.493L138.488,-2.57C138.483,-1.889,137.928,-1.341,137.247,-1.346C136.573,-1.351,136.027,-1.896,136.022,-2.57L136.022,-5.493C136.024,-6.174,136.575,-6.725,137.256,-6.726L137.255,-6.726ZM137.255,2.682C137.935,2.684,138.486,3.235,138.488,3.915L138.488,6.838C138.483,7.519,137.928,8.067,137.247,8.062C136.573,8.057,136.027,7.512,136.022,6.838L136.022,3.915C136.024,3.234,136.575,2.683,137.256,2.682L137.255,2.682ZM137.255,12.09C137.935,12.092,138.486,12.643,138.488,13.323L138.488,16.246C138.483,16.927,137.928,17.475,137.247,17.47C136.573,17.465,136.027,16.92,136.022,16.246L136.022,13.323C136.023,12.642,136.575,12.09,137.256,12.089L137.255,12.09ZM137.255,21.498C137.935,21.5,138.486,22.051,138.488,22.731L138.488,25.654C138.483,26.335,137.928,26.884,137.247,26.879C136.573,26.874,136.027,26.328,136.022,25.654L136.022,22.731C136.025,22.051,136.576,21.502,137.256,21.501L137.255,21.498ZM137.255,30.906C137.935,30.908,138.486,31.459,138.488,32.139L138.488,35.062C138.483,35.743,137.928,36.292,137.247,36.287C136.573,36.282,136.027,35.736,136.022,35.062L136.022,32.139C136.021,31.456,136.573,30.902,137.256,30.901L137.256,30.901L137.255,30.906ZM137.255,-25.541C137.935,-25.539,138.486,-24.988,138.488,-24.308L138.488,-21.385C138.483,-20.704,137.928,-20.155,137.247,-20.16C136.573,-20.165,136.027,-20.711,136.022,-21.385L136.022,-24.309C136.024,-24.99,136.575,-25.541,137.256,-25.542L137.255,-25.541ZM116.613,-24.582C117.293,-24.58,117.844,-24.029,117.846,-23.349L117.846,-20.426C117.841,-19.745,117.286,-19.197,116.605,-19.202C115.931,-19.207,115.385,-19.752,115.38,-20.426L115.38,-23.349C115.381,-24.03,115.932,-24.581,116.613,-24.583L116.613,-24.582Z" /></g></g></g></g><g fill="#caced5" fill-opacity="1"><g transform="translate(-135.947,47.454)"><g transform="scale(0,0)"><animateTransform repeatCount="indefinite" type="scale" attributeName="transform" dur="5.967s" begin="0s" calcMode="spline" values="0 0; 1 1; 1 1; 0 0" keyTimes="0; 0.089; 0.855; 1" keySplines="0.03 0 0.35 1; 0.03 0 0.35 1; 0.03 0 0.35 1" fill="freeze" /><g id="Group 1" transform="translate(135.947,-47.454)"><path d="M-128.657,-9.795C-127.977,-9.793,-127.426,-9.242,-127.424,-8.562L-127.424,-5.639C-127.429,-4.958,-127.985,-4.41,-128.666,-4.415C-129.34,-4.42,-129.885,-4.965,-129.89,-5.639L-129.89,-8.562C-129.886,-9.24,-129.338,-9.789,-128.66,-9.792L-128.657,-9.795ZM-128.657,-0.387C-127.977,-0.385,-127.426,0.166,-127.424,0.846L-127.424,3.769C-127.429,4.45,-127.985,4.998,-128.666,4.993C-129.34,4.988,-129.885,4.443,-129.89,3.769L-129.89,0.846C-129.887,0.168,-129.338,-0.382,-128.66,-0.385L-128.657,-0.387ZM-128.657,9.021C-127.977,9.023,-127.426,9.574,-127.424,10.254L-127.424,13.177C-127.429,13.858,-127.985,14.406,-128.666,14.401C-129.34,14.396,-129.885,13.851,-129.89,13.177L-129.89,10.254C-129.887,9.576,-129.338,9.026,-128.66,9.023L-128.657,9.021ZM-128.657,18.429C-127.977,18.431,-127.426,18.982,-127.424,19.662L-127.424,22.585C-127.429,23.266,-127.985,23.814,-128.666,23.809C-129.34,23.804,-129.885,23.259,-129.89,22.585L-129.89,19.662C-129.887,18.984,-129.338,18.434,-128.66,18.431L-128.657,18.429ZM-128.657,27.837C-127.977,27.839,-127.426,28.39,-127.424,29.07L-127.424,31.993C-127.429,32.674,-127.985,33.222,-128.666,33.217C-129.34,33.212,-129.885,32.667,-129.89,31.993L-129.89,29.07C-129.887,28.391,-129.338,27.842,-128.66,27.839L-128.657,27.837ZM-128.657,37.245C-127.977,37.247,-127.426,37.798,-127.424,38.478L-127.424,41.401C-127.429,42.082,-127.985,42.631,-128.666,42.626C-129.34,42.621,-129.885,42.075,-129.89,41.401L-129.89,38.478C-129.887,37.799,-129.339,37.25,-128.66,37.247L-128.657,37.245ZM-133.957,-13.236C-133.277,-13.234,-132.726,-12.683,-132.724,-12.003L-132.724,-9.08C-132.729,-8.399,-133.285,-7.851,-133.966,-7.856C-134.64,-7.861,-135.185,-8.406,-135.19,-9.08L-135.19,-11.999C-135.189,-12.68,-134.639,-13.232,-133.958,-13.234L-133.957,-13.236ZM-133.957,-3.828C-133.277,-3.826,-132.726,-3.275,-132.724,-2.595L-132.724,0.328C-132.729,1.009,-133.285,1.557,-133.966,1.552C-134.64,1.547,-135.185,1.002,-135.19,0.328L-135.19,-2.595C-135.187,-3.274,-134.637,-3.824,-133.958,-3.826L-133.957,-3.828ZM-133.957,5.58C-133.277,5.582,-132.726,6.133,-132.724,6.813L-132.724,9.736C-132.729,10.417,-133.285,10.965,-133.966,10.96C-134.64,10.955,-135.185,10.41,-135.19,9.736L-135.19,6.813C-135.187,6.134,-134.637,5.584,-133.958,5.582L-133.957,5.58ZM-133.957,14.988C-133.277,14.99,-132.726,15.541,-132.724,16.221L-132.724,19.144C-132.729,19.825,-133.285,20.373,-133.966,20.368C-134.64,20.363,-135.185,19.818,-135.19,19.144L-135.19,16.221C-135.187,15.542,-134.637,14.992,-133.958,14.99L-133.957,14.988ZM-133.957,24.396C-133.277,24.398,-132.726,24.949,-132.724,25.629L-132.724,28.552C-132.729,29.233,-133.285,29.781,-133.966,29.776C-134.64,29.771,-135.185,29.226,-135.19,28.552L-135.19,25.629C-135.185,24.951,-134.636,24.403,-133.958,24.401L-133.957,24.396ZM-133.957,33.804C-133.277,33.806,-132.726,34.357,-132.724,35.037L-132.724,37.96C-132.729,38.641,-133.285,39.189,-133.966,39.184C-134.64,39.179,-135.185,38.634,-135.19,37.96L-135.19,35.037C-135.19,34.356,-134.639,33.803,-133.958,33.801L-133.957,33.804ZM-133.957,-22.643C-133.277,-22.641,-132.726,-22.09,-132.724,-21.41L-132.724,-18.487C-132.729,-17.806,-133.285,-17.258,-133.966,-17.263C-134.64,-17.268,-135.185,-17.813,-135.19,-18.487L-135.19,-21.409C-135.188,-22.089,-134.638,-22.64,-133.958,-22.642L-133.957,-22.643ZM-111.598,-4.764C-110.918,-4.762,-110.367,-4.211,-110.365,-3.531L-110.365,-0.608C-110.37,0.073,-110.926,0.621,-111.607,0.616C-112.281,0.611,-112.826,0.066,-112.831,-0.608L-112.831,-3.531C-112.829,-4.211,-112.279,-4.761,-111.599,-4.763L-111.598,-4.764ZM-160.967,-2.572C-160.287,-2.57,-159.736,-2.019,-159.734,-1.339L-159.734,1.584C-159.739,2.265,-160.295,2.813,-160.976,2.808C-161.65,2.803,-162.195,2.258,-162.2,1.584L-162.2,-1.339C-162.198,-2.019,-161.648,-2.569,-160.968,-2.571L-160.967,-2.572ZM-156.904,6.928C-156.224,6.93,-155.672,7.481,-155.67,8.161L-155.67,11.084C-155.675,11.765,-156.231,12.313,-156.912,12.308C-157.586,12.303,-158.131,11.758,-158.136,11.084L-158.136,8.161C-158.134,7.48,-157.584,6.929,-156.903,6.928L-156.904,6.928ZM-153.433,18.984C-152.753,18.986,-152.202,19.537,-152.2,20.217L-152.2,23.14C-152.205,23.821,-152.76,24.369,-153.441,24.364C-154.115,24.359,-154.66,23.814,-154.665,23.14L-154.665,20.217C-154.663,19.537,-154.112,18.986,-153.432,18.985L-153.433,18.984ZM-114.568,4.735C-113.888,4.737,-113.337,5.288,-113.335,5.968L-113.335,8.891C-113.34,9.572,-113.895,10.12,-114.576,10.115C-115.25,10.11,-115.795,9.565,-115.8,8.891L-115.8,5.968C-115.798,5.288,-115.247,4.737,-114.567,4.736L-114.568,4.735ZM-144.893,19.715C-144.213,19.717,-143.661,20.268,-143.659,20.948L-143.659,23.871C-143.664,24.552,-144.22,25.1,-144.901,25.095C-145.575,25.09,-146.12,24.545,-146.125,23.871L-146.125,20.948C-146.123,20.267,-145.573,19.716,-144.892,19.715L-144.893,19.715ZM-121.143,12.956C-120.463,12.958,-119.912,13.509,-119.91,14.189L-119.91,17.112C-119.915,17.793,-120.471,18.341,-121.152,18.336C-121.826,18.331,-122.371,17.786,-122.376,17.112L-122.376,14.189C-122.374,13.508,-121.824,12.957,-121.143,12.956L-121.143,12.956ZM-143.794,8.063L-143.794,-21.091C-143.794,-27.865,-138.303,-33.356,-131.529,-33.356C-124.755,-33.356,-119.263,-27.865,-119.263,-21.091L-119.263,-14.999C-113.538,-18.617,-105.964,-16.908,-102.346,-11.183C-101.107,-9.222,-100.45,-6.95,-100.45,-4.63L-100.45,4.525C-100.45,17.038,-106.511,25.387,-119.263,26.355L-119.263,47.479L-124.786,47.479L-124.786,23.607C-124.786,21.531,-124.786,20.936,-122.397,20.936C-111.072,20.936,-105.972,15.718,-105.972,4.52L-105.972,-4.635C-105.927,-8.358,-108.91,-11.412,-112.633,-11.457C-116.356,-11.502,-119.41,-8.52,-119.455,-4.797C-119.456,-4.743,-119.456,-4.689,-119.455,-4.635L-119.455,3.965C-119.455,7.087,-124.786,7.192,-124.786,4.331L-124.786,-21.089C-124.741,-24.812,-127.724,-27.866,-131.447,-27.911C-135.17,-27.956,-138.224,-24.974,-138.269,-21.251C-138.27,-21.197,-138.27,-21.143,-138.269,-21.089L-138.269,10.576C-138.269,17.819,-152.269,19.347,-152.269,8.148L-152.269,-5.292C-152.224,-9.015,-155.207,-12.069,-158.93,-12.114C-162.653,-12.159,-165.708,-9.177,-165.753,-5.454C-165.754,-5.4,-165.754,-5.346,-165.753,-5.292L-165.753,8.148C-165.753,22.871,-159.652,29.069,-144.815,29.069C-143.183,29.069,-138.272,28.3,-138.272,30.45L-138.272,47.475L-143.794,47.475L-143.794,34.591L-144.815,34.591C-162.682,34.591,-171.276,25.909,-171.276,8.146L-171.276,-5.294C-171.276,-12.068,-165.785,-17.559,-159.011,-17.559C-152.237,-17.559,-146.746,-12.068,-146.746,-5.294L-146.746,8.146C-146.746,10.977,-143.794,11.316,-143.794,8.062L-143.794,8.063ZM-128.66,-19.199C-127.98,-19.197,-127.429,-18.646,-127.427,-17.966L-127.427,-15.043C-127.432,-14.362,-127.987,-13.814,-128.668,-13.819C-129.342,-13.824,-129.888,-14.369,-129.893,-15.043L-129.893,-17.966C-129.891,-18.646,-129.34,-19.197,-128.66,-19.199Z" /></g></g></g></g></g></g><g id="Group 9682"><g transform="translate(328.341,211.479)"><animateTransform repeatCount="indefinite" type="translate" attributeName="transform" dur="6.433s" begin="0s" calcMode="spline" values="328.341 211.479; 314.244 198.929; 314.244 198.929; 328.341 211.479" keyTimes="0; 0.316; 0.793; 1" keySplines="0.167 0 0.54 1; 0.167 0 0.27 1; 0.63 0 0.31 1" fill="freeze" /><g transform="rotate(0)"><animateTransform repeatCount="indefinite" type="rotate" attributeName="transform" dur="6.433s" begin="0s" calcMode="spline" values="0; 0; 0; 0" keyTimes="0; 0.109; 0.902; 1" keySplines="0.167 0 0.31 1; 0.167 0 0.33 1; 0.167 0 0.31 1" fill="freeze" /><g transform="scale(0,0)"><animateTransform repeatCount="indefinite" type="scale" attributeName="transform" dur="6.433s" begin="0s" calcMode="spline" values="0 0; 1 1; 1 1; 0 0" keyTimes="0; 0.109; 0.902; 1" keySplines="0.167 0.103 0.31 1; 0 0 1 1; 0.167 0 0.31 1" fill="freeze" /><g transform="translate(-328.341,-203.979)"><g id="Rectangle 4757" transform="matrix(1,0,0,1,310.387,186.903)"><path fill="#b6bbc4" fill-opacity="1" d="M-23.018,-8.114L-8.114,-23.018L-8.114,-23.018L20.968,6.064C23.702,8.798,23.702,13.229,20.968,15.963L15.963,20.968C13.229,23.702,8.798,23.702,6.064,20.968L-23.018,-8.114L-23.018,-8.114Z" /></g><g id="Subtraction 48" transform="matrix(1,0,0,1,252.51,128.465)"><path fill="#caced5" fill-opacity="1" d="M-0.081,-56.957C-31.395,-56.946,-56.773,-31.551,-56.761,-0.237C-56.751,31.077,-31.356,56.455,-0.042,56.444C31.272,56.432,56.65,31.037,56.64,-0.277C56.634,-15.3,50.665,-29.708,40.046,-40.335C29.427,-51.013,14.978,-56.998,-0.081,-56.957ZM-0.089,67.89C-37.583,67.841,-67.939,37.406,-67.89,-0.088C-67.841,-37.583,-37.405,-67.939,0.089,-67.89C37.583,-67.84,67.939,-37.406,67.89,0.089C67.855,27.69,51.112,52.521,25.538,62.904C17.399,66.209,8.696,67.902,-0.089,67.89Z" /></g></g></g></g></g></g><g id="Group 9682"><g transform="translate(328.341,211.479)"><animateTransform repeatCount="indefinite" type="translate" attributeName="transform" dur="6.433s" begin="0s" calcMode="spline" values="328.341 211.479; 314.244 198.929; 314.244 198.929; 328.341 211.479" keyTimes="0; 0.316; 0.793; 1" keySplines="0.167 0 0.54 1; 0.167 0 0.27 1; 0.63 0 0.31 1" fill="freeze" /><g transform="rotate(0)"><animateTransform repeatCount="indefinite" type="rotate" attributeName="transform" dur="6.433s" begin="0s" calcMode="spline" values="0; 0; 0; 0" keyTimes="0; 0.109; 0.902; 1" keySplines="0.167 0 0.31 1; 0.167 0 0.33 1; 0.167 0 0.31 1" fill="freeze" /><g transform="scale(0,0)"><animateTransform repeatCount="indefinite" type="scale" attributeName="transform" dur="6.433s" begin="0s" calcMode="spline" values="0 0; 1 1; 1 1; 0 0" keyTimes="0; 0.109; 0.902; 1" keySplines="0.167 0.103 0.31 1; 0 0 1 1; 0.167 0 0.31 1" fill="freeze" /><g transform="translate(-328.341,-203.979)"><g transform="matrix(1,0,0,1,0,0)" id="Layer 1"><g id="Group 9684" transform="matrix(1,0,0,1,0,0)"><g id="Path 3728" transform="matrix(1,0,0,1,226.172,110.108)"><path fill="#caced5" fill-opacity="1" d="M12.319,-12.473C13.968,-10.813,13.968,-8.133,12.319,-6.473L5.9,-0.054L12.319,6.365C14.031,7.967,14.121,10.653,12.519,12.365C10.917,14.077,8.231,14.167,6.519,12.565C6.45,12.501,6.383,12.434,6.319,12.365L-0.1,5.946L-6.519,12.365C-8.231,13.967,-10.917,13.877,-12.519,12.165C-14.046,10.533,-14.046,7.997,-12.519,6.365L-6.1,-0.054L-12.519,-6.473C-14.121,-8.185,-14.031,-10.871,-12.319,-12.473C-10.687,-14,-8.151,-14,-6.519,-12.473L-0.1,-6.054L6.319,-12.473C7.979,-14.121,10.659,-14.121,12.319,-12.473Z" /></g><g id="Path 3729" transform="matrix(1,0,0,1,278.772,110.057)"><path fill="#caced5" fill-opacity="1" d="M12.42,-12.422C14.069,-10.762,14.069,-8.082,12.42,-6.422L6.001,-0.003L12.42,6.416C14.132,8.018,14.223,10.704,12.621,12.416C11.019,14.128,8.333,14.218,6.621,12.616C6.552,12.552,6.484,12.485,6.42,12.416L-0.001,6.003L-6.419,12.422C-8.131,14.024,-10.817,13.934,-12.419,12.222C-13.945,10.59,-13.945,8.054,-12.419,6.422L-6.001,0.003L-12.42,-6.416C-14.132,-8.018,-14.223,-10.704,-12.621,-12.416C-11.019,-14.128,-8.333,-14.218,-6.621,-12.616C-6.552,-12.552,-6.484,-12.485,-6.42,-12.416L-0.001,-5.997L6.417,-12.416C8.077,-14.064,10.757,-14.064,12.417,-12.416L12.42,-12.422Z" /></g></g><g><g id="Path 3736" transform="translate(252.426,134.777)"><animateTransform repeatCount="indefinite" type="translate" attributeName="transform" dur="0.9s" begin="0.633s" calcMode="spline" values="252.426 134.777; 252.426 138.777" keyTimes="0; 1" keySplines="0.64 0 0.36 1" fill="freeze" /><path fill="#caced5" fill-opacity="1" d="M-9.058,4.569C-9.779,5.812,-11.373,6.233,-12.615,5.512C-13.858,4.79,-14.279,3.199,-13.558,1.956C-9.224,-5.532,0.36,-8.089,7.848,-3.755C10.218,-2.383,12.186,-0.414,13.558,1.956C14.279,3.199,13.858,4.79,12.615,5.512C11.373,6.233,9.779,5.812,9.058,4.569C6.183,-0.431,-0.202,-2.154,-5.202,0.721C-6.802,1.641,-8.129,2.969,-9.049,4.569L-9.058,4.569Z" /></g></g></g></g></g></g></g></g><g id="Layer 2"><g transform="translate(243.29,123.643)"><animateTransform repeatCount="indefinite" type="translate" attributeName="transform" dur="3.1s" begin="2s" calcMode="spline" values="243.29 123.643; 243.29 123.643" keyTimes="0; 1" keySplines="0 0 1 1" fill="freeze" /><g transform="scale(1,1) translate(-258.829,-116.143)"><g opacity="0"><animate repeatCount="indefinite" attributeName="opacity" dur="6.666666666666667s" begin="0s" calcMode="spline" values="0; 1; 1; 0" keyTimes="0; 0.3; 0.765; 1" keySplines="0.167 0.714 0.24 1; 0.167 0 0.24 1; 0.167 0 0.24 1" fill="freeze" /><g id="Ellipse 1026" transform="translate(249.419,170.469)"><animateTransform repeatCount="indefinite" type="translate" attributeName="transform" dur="6.667s" begin="0s" calcMode="spline" values="249.419 170.469; 172.329 141.773; 172.329 141.773; 52.565 170.469" keyTimes="0; 0.3; 0.765; 1" keySplines="0.167 0.714 0.24 1; 0 0 1 1; 0.167 0 0.24 1" fill="freeze" /><path fill="#caced5" fill-opacity="1" d="M0,-8C4.418,-8,8,-4.418,8,0C8,4.418,4.418,8,0,8C-4.418,8,-8,4.418,-8,0C-8,-4.418,-4.418,-8,0,-8Z" /></g></g><g opacity="0"><animate repeatCount="indefinite" attributeName="opacity" dur="6.666666666666667s" begin="0s" calcMode="spline" values="0; 1; 1; 0" keyTimes="0; 0.3; 0.765; 1" keySplines="0.167 0.714 0.24 1; 0.167 0 0.24 1; 0.167 0 0.24 1" fill="freeze" /><g id="Ellipse 1023" transform="translate(422.419,177.469)"><animateTransform repeatCount="indefinite" type="translate" attributeName="transform" dur="6.667s" begin="0s" calcMode="spline" values="422.419 177.469; 345.329 148.773; 345.329 148.773; 225.565 177.469" keyTimes="0; 0.3; 0.765; 1" keySplines="0.167 0.714 0.24 1; 0 0 1 1; 0.167 0 0.24 1" fill="freeze" /><path fill="#b6bbc4" fill-opacity="1" d="M0,-8C4.418,-8,8,-4.418,8,0C8,4.418,4.418,8,0,8C-4.418,8,-8,4.418,-8,0C-8,-4.418,-4.418,-8,0,-8Z" /></g></g><g opacity="0"><animate repeatCount="indefinite" attributeName="opacity" dur="6.666666666666667s" begin="0s" calcMode="spline" values="0; 1; 1; 0" keyTimes="0; 0.3; 0.765; 1" keySplines="0.167 0.714 0.24 1; 0.167 0 0.24 1; 0.167 0 0.24 1" fill="freeze" /><g id="Ellipse 1027" transform="translate(251.919,88.969)"><animateTransform repeatCount="indefinite" type="translate" attributeName="transform" dur="6.667s" begin="0s" calcMode="spline" values="251.919 88.969; 174.829 60.273; 174.829 60.273; 55.065 88.969" keyTimes="0; 0.3; 0.765; 1" keySplines="0.167 0.714 0.24 1; 0 0 1 1; 0.167 0 0.24 1" fill="freeze" /><path fill="#b6bbc4" fill-opacity="1" d="M0,-5.5C3.038,-5.5,5.5,-3.038,5.5,0C5.5,3.038,3.038,5.5,0,5.5C-3.038,5.5,-5.5,3.038,-5.5,0C-5.5,-3.038,-3.038,-5.5,0,-5.5Z" /></g></g><g opacity="0"><animate repeatCount="indefinite" attributeName="opacity" dur="6.666666666666667s" begin="0s" calcMode="spline" values="0; 1; 1; 0" keyTimes="0; 0.3; 0.765; 1" keySplines="0.167 0.714 0.24 1; 0.167 0 0.24 1; 0.167 0 0.24 1" fill="freeze" /><g id="Ellipse 1024" transform="translate(411.919,150.469)"><animateTransform repeatCount="indefinite" type="translate" attributeName="transform" dur="6.667s" begin="0s" calcMode="spline" values="411.919 150.469; 334.829 121.773; 334.829 121.773; 215.065 150.469" keyTimes="0; 0.3; 0.765; 1" keySplines="0.167 0.714 0.24 1; 0 0 1 1; 0.167 0 0.24 1" fill="freeze" /><path fill="#caced5" fill-opacity="1" d="M0,-6C3.038,-6,5.5,-3.314,5.5,0C5.5,3.314,3.038,6,0,6C-3.038,6,-5.5,3.314,-5.5,0C-5.5,-3.314,-3.038,-6,0,-6Z" /></g></g><g opacity="0"><animate repeatCount="indefinite" attributeName="opacity" dur="6.666666666666667s" begin="0s" calcMode="spline" values="0; 1; 1; 0" keyTimes="0; 0.3; 0.765; 1" keySplines="0.167 0.714 0.24 1; 0.167 0 0.24 1; 0.167 0 0.24 1" fill="freeze" /><g id="Ellipse 1031" transform="translate(308.919,233.208)"><animateTransform repeatCount="indefinite" type="translate" attributeName="transform" dur="6.667s" begin="0s" calcMode="spline" values="308.919 233.208; 231.829 204.512; 231.829 204.512; 112.065 233.208" keyTimes="0; 0.3; 0.765; 1" keySplines="0.167 0.714 0.24 1; 0 0 1 1; 0.167 0 0.24 1" fill="freeze" /><path fill="#caced5" fill-opacity="1" d="M0,-6C3.038,-6,5.5,-3.314,5.5,0C5.5,3.314,3.038,6,0,6C-3.038,6,-5.5,3.314,-5.5,0C-5.5,-3.314,-3.038,-6,0,-6Z" /></g></g><g opacity="0"><animate repeatCount="indefinite" attributeName="opacity" dur="6.666666666666667s" begin="0s" calcMode="spline" values="0; 1; 1; 0" keyTimes="0; 0.3; 0.765; 1" keySplines="0.167 0.714 0.24 1; 0.167 0 0.24 1; 0.167 0 0.24 1" fill="freeze" /><g id="Ellipse 1025" transform="translate(310.419,54.469)"><animateTransform repeatCount="indefinite" type="translate" attributeName="transform" dur="6.667s" begin="0s" calcMode="spline" values="310.419 54.469; 233.329 25.773; 233.329 25.773; 113.565 54.469" keyTimes="0; 0.3; 0.765; 1" keySplines="0.167 0.714 0.24 1; 0 0 1 1; 0.167 0 0.24 1" fill="freeze" /><path fill="#caced5" fill-opacity="1" d="M0,-4C2.209,-4,4,-2.209,4,0C4,2.209,2.209,4,0,4C-2.209,4,-4,2.209,-4,0C-4,-2.209,-2.209,-4,0,-4Z" /></g></g></g></g></g><g id="Path 3738"><g transform="translate(282.883,226.421)"><animateTransform repeatCount="indefinite" type="translate" attributeName="transform" dur="6.667s" begin="0s" calcMode="spline" values="282.883 226.421; 169.883 226.421; 169.883 226.421; 282.883 226.421" keyTimes="0; 0.3; 0.805; 1" keySplines="0.62 0 0.66 1; 0 0 1 1; 0.167 0 0.29 1" fill="freeze" /><g transform="rotate(234)"><animateTransform repeatCount="indefinite" type="rotate" attributeName="transform" dur="6.667s" begin="0s" calcMode="spline" values="234; 0; 0; 234" keyTimes="0; 0.3; 0.805; 1" keySplines="0.62 0 0.66 1; 0.167 0 0.29 1; 0.167 0 0.29 1" fill="freeze" /><g transform="scale(0,0)"><animateTransform repeatCount="indefinite" type="scale" attributeName="transform" dur="6.667s" begin="0s" calcMode="spline" values="0 0; 1 1; 1 1; 0 0" keyTimes="0; 0.08; 0.925; 1" keySplines="0.167 0 0.833 1; 0.167 0 0.29 1; 0.167 0 0.29 1" fill="freeze" /><g transform="translate(0,0)"><g id="Path 3738"><path fill="#caced5" fill-opacity="1" d="M-8.841,-7.716C-9.397,-7.004,-9.772,-6.167,-9.934,-5.278C-8.938,-6.399,-7.791,-7.378,-6.527,-8.186C-7.696,-8.246,-8.535,-8.102,-8.845,-7.718L-8.841,-7.716ZM0.564,11.172C1.678,11.565,2.917,11.171,3.601,10.208C2.161,10.502,0.683,10.562,-0.777,10.385L0.563,11.173L0.564,11.172ZM9.318,2.189C8.944,3.472,8.482,4.729,7.937,5.95C10.164,3.903,10.662,2.023,10.083,0.375L10.056,0.3C9.844,0.943,9.598,1.573,9.318,2.189ZM7.569,-8.444C8.152,-7.903,8.643,-7.272,9.022,-6.573C8.955,-7.028,8.841,-7.474,8.682,-7.905C8.553,-8.255,8.378,-8.586,8.162,-8.889L7.569,-8.444ZM4.198,-10.427C4.822,-10.201,5.425,-9.922,6,-9.592C6.217,-9.763,6.432,-9.927,6.643,-10.085C5.866,-10.387,5.03,-10.507,4.2,-10.432L4.198,-10.427ZM-2.274,-10.45C-1.768,-10.768,-1.211,-10.997,-0.628,-11.128L-0.285,-11.258C3.818,-12.802,6.604,-12.58,8.387,-11.327L9.098,-11.807C9.645,-12.174,10.02,-12.425,10.027,-12.436C10.067,-12.492,10.113,-12.542,10.164,-12.588L10.436,-12.873C10.763,-13.27,11.351,-13.326,11.748,-12.999C12.145,-12.672,12.2,-12.085,11.873,-11.688C11.847,-11.656,11.818,-11.626,11.788,-11.598L11.512,-11.306C11.095,-10.907,10.633,-10.558,10.135,-10.266L9.705,-9.977C10,-9.538,10.241,-9.067,10.424,-8.571C11.069,-6.541,11.169,-4.375,10.713,-2.294C11.194,-1.675,11.574,-0.985,11.842,-0.248C12.695,2.169,12.041,4.83,8.941,7.554C8.137,8.262,7.236,8.855,6.267,9.313C5.976,9.838,5.69,10.353,5.395,10.855C4.396,12.776,2.142,13.677,0.094,12.975C-1.527,12.483,-3.02,11.645,-4.284,10.517C-4.955,9.951,-5.589,9.342,-6.183,8.696C-7.965,7.782,-9.505,6.458,-10.676,4.833C-11.961,3.088,-12.456,0.885,-12.042,-1.242C-11.977,-1.556,-11.892,-1.865,-11.788,-2.168C-12.26,-4.513,-11.723,-6.948,-10.31,-8.878C-9.533,-9.868,-7.071,-10.069,-4.066,-9.618C-3.505,-9.905,-2.91,-10.185,-2.281,-10.459L-2.274,-10.45ZM3.062,7.271C2.682,7.73,2.275,8.166,1.846,8.58C2.907,8.497,3.949,8.255,4.938,7.861C5.08,7.592,5.22,7.321,5.358,7.049C4.654,7.428,3.827,7.507,3.064,7.267L3.062,7.271ZM8.009,-2.46C7.857,-1.82,7.671,-1.19,7.451,-0.57C6.697,1.532,5.69,3.534,4.454,5.394C4.561,5.358,4.663,5.311,4.76,5.254C6.026,4.304,7,3.018,7.569,1.541C7.908,0.38,8.102,-0.819,8.148,-2.028L8.15,-2.336L8.013,-2.461L8.009,-2.46ZM5.828,-6.663L5.558,-6.756L5.311,-6.518C5.702,-6.313,6.084,-6.099,6.457,-5.883C6.398,-6.234,6.163,-6.53,5.834,-6.666L5.828,-6.663ZM-6.55,-3.586C-6.703,-3.156,-6.816,-2.713,-6.889,-2.262C-6.788,-2.705,-6.675,-3.147,-6.547,-3.59L-6.55,-3.586ZM-7.457,2.687L-7.688,2.485C-8.509,1.741,-8.996,-0.028,-8.808,-1.969C-8.729,-2.793,-8.54,-3.603,-8.247,-4.377C-8.93,-3.668,-9.48,-2.841,-9.873,-1.938C-9.391,0.264,-8.506,2.357,-7.262,4.236C-7.304,4.018,-7.345,3.796,-7.383,3.565C-7.428,3.274,-7.453,2.98,-7.459,2.686L-7.457,2.687ZM0.501,4.454C-1.439,5.105,-3.559,4.961,-5.394,4.054C-5.196,5.288,-4.789,6.48,-4.193,7.579C-3.187,8,-2.133,8.298,-1.055,8.468C-0.053,7.866,0.831,7.086,1.553,6.166C1.326,5.892,1.123,5.599,0.944,5.291C0.779,5.011,0.632,4.733,0.5,4.457L0.501,4.454ZM2.558,-2.088C2.429,-2.174,2.306,-2.251,2.178,-2.328C1.569,-1.039,1.367,0.405,1.599,1.812C1.866,1.617,2.114,1.397,2.341,1.156C2.757,0.736,3.065,0.22,3.236,-0.346C3.439,-1.014,3.161,-1.734,2.561,-2.092L2.558,-2.088ZM3.099,-3.961C3.261,-3.864,3.426,-3.762,3.592,-3.652C4.886,-2.875,5.485,-1.316,5.044,0.127C4.795,0.992,4.335,1.782,3.707,2.427C3.259,2.899,2.753,3.31,2.199,3.65C2.304,3.874,2.423,4.101,2.558,4.331C2.618,4.429,2.672,4.518,2.73,4.602C3.96,2.8,4.956,0.848,5.693,-1.206C5.988,-2.025,6.223,-2.864,6.394,-3.718C5.618,-4.235,4.81,-4.701,3.975,-5.115C3.664,-4.748,3.372,-4.365,3.1,-3.968L3.099,-3.961ZM-0.424,0.606C-0.663,0.785,-0.973,0.839,-1.258,0.752C-2.6,0.497,-3.716,-0.431,-4.212,-1.704C-4.392,-2.34,-4.296,-3.021,-3.945,-3.581C-3.591,-4.136,-3.069,-4.565,-2.455,-4.803C-1.225,-5.245,0.122,-5.234,1.344,-4.77C1.606,-5.166,1.89,-5.548,2.187,-5.919L2.144,-5.937C0.65,-6.554,-0.885,-7.07,-2.449,-7.479C-2.578,-7.441,-2.704,-7.4,-2.827,-7.356C-3.028,-7.075,-3.213,-6.783,-3.382,-6.482C-4.291,-4.759,-4.922,-2.903,-5.25,-0.983C-5.424,-0.073,-5.536,0.849,-5.586,1.774C-4.025,2.93,-2.007,3.274,-0.151,2.7C-0.331,2.016,-0.424,1.311,-0.426,0.603L-0.424,0.606ZM-0.71,-1.034C-0.557,-0.987,-0.419,-0.902,-0.308,-0.786C-0.168,-1.587,0.075,-2.367,0.416,-3.106C-0.286,-3.331,-1.043,-3.322,-1.739,-3.078C-1.985,-2.991,-2.198,-2.829,-2.348,-2.615C-2.426,-2.493,-2.449,-2.344,-2.412,-2.204C-2.295,-1.796,-1.774,-1.359,-0.711,-1.033L-0.71,-1.034Z" /></g></g></g></g></g></g><g transform="matrix(1,0,0,1,271.5,131.25)" id="Shape Layer 1"><animate repeatCount="indefinite" begin="0s" calcMode="discrete" fill="freeze" dur="6.933s" values="visible; hidden" keyTimes="0; 1" attributeName="visibility" /><g id="Shape 1"><path stroke-linejoin="round" stroke-linecap="round" stroke-width="3" stroke-opacity="1" stroke="#caced5" fill="#7ad5e8" fill-opacity="0" d="M37,99.5C38.491,99.649,-5.483,106.159,-22.25,98.25C-48.75,85.75,-26.375,74,-16.437,81.438C0.772,94.317,-17.5,101.75,-78,99.75" /></g></g><g id="Group 9682"><g transform="translate(328.341,211.479)"><animateTransform repeatCount="indefinite" type="translate" attributeName="transform" dur="6.433s" begin="0s" calcMode="spline" values="328.341 211.479; 314.244 198.929; 314.244 198.929; 328.341 211.479" keyTimes="0; 0.316; 0.793; 1" keySplines="0.167 0 0.54 1; 0.167 0 0.27 1; 0.63 0 0.31 1" fill="freeze" /><g transform="rotate(0)"><animateTransform repeatCount="indefinite" type="rotate" attributeName="transform" dur="6.433s" begin="0s" calcMode="spline" values="0; 0; 0; 0" keyTimes="0; 0.109; 0.902; 1" keySplines="0.167 0 0.31 1; 0.167 0 0.33 1; 0.167 0 0.31 1" fill="freeze" /><g transform="scale(0,0)"><animateTransform repeatCount="indefinite" type="scale" attributeName="transform" dur="6.433s" begin="0s" calcMode="spline" values="0 0; 1 1; 1 1; 0 0" keyTimes="0; 0.109; 0.902; 1" keySplines="0.167 0.103 0.31 1; 0 0 1 1; 0.167 0 0.31 1" fill="freeze" /><g transform="translate(-328.341,-203.979)"><g id="Layer 3"><animate repeatCount="indefinite" begin="0s" calcMode="discrete" fill="freeze" dur="6.933s" values="visible; hidden" keyTimes="0; 1" attributeName="visibility" /><g transform="translate(308.3,91.483)"><animateTransform repeatCount="indefinite" type="translate" attributeName="transform" dur="0.867s" begin="1s" calcMode="spline" values="308.3 91.483; 308.3 91.483; 308.3 91.483" keyTimes="0; 0.731; 1" keySplines="0 0 1 1; 0 0 1 1" fill="freeze" /><g transform="scale(0,0)"><animateTransform repeatCount="indefinite" type="scale" attributeName="transform" dur="0.867s" begin="1s" calcMode="spline" values="0 0; 1.05 1.05; 1 1" keyTimes="0; 0.731; 1" keySplines="0.02 0 0.45 1; 0.02 0 0.833 1" fill="freeze" /><g transform="translate(-294.203,-78.933)"><g id="Path 3735" transform="matrix(1,0,0,1,326.203,39.933)"><path fill="#ffffff" fill-opacity="1" d="M-21.028,21.991C-28.491,16.669,-32.918,8.066,-32.912,-1.1L-32.912,-10.469C-32.912,-26.138,-20.209,-38.84,-4.54,-38.84L-4.539,-38.84L4.538,-38.84C20.207,-38.841,32.912,-26.139,32.913,-10.47C32.913,-10.469,32.913,-10.47,32.913,-10.469L32.913,-1.1C32.912,14.57,20.21,27.271,4.54,27.271L-4.539,27.271C-6.494,27.271,-8.444,27.071,-10.358,26.672L-30.546,38.84L-21.028,21.991Z" /></g><g id="Group 9683" transform="matrix(1,0,0,1,0,0)"><g id="Path 2949" transform="matrix(1,0,0,1,327.563,34.047)"><path fill="#d9e3eb" fill-opacity="1" d="M-10.893,-17.421L3.293,-17.421L13.793,-6.921L13.793,14.521C13.802,16.114,12.518,17.412,10.925,17.421C10.914,17.421,10.904,17.421,10.893,17.421L-10.893,17.421C-12.486,17.43,-13.784,16.147,-13.793,14.554C-13.793,14.543,-13.793,14.532,-13.793,14.521L-13.793,-14.518C-13.804,-16.111,-12.522,-17.41,-10.929,-17.421C-10.917,-17.421,-10.905,-17.421,-10.893,-17.421Z" /></g><g id="Path 2950" transform="matrix(1,0,0,1,336.218,21.876)"><path fill="#b2c1d1" fill-opacity="1" d="M-5.25,-5.25L5.25,5.25L-5.25,5.25L-5.25,-5.25Z" /></g></g><g id="Ellipse 1" transform="matrix(1,0,0,1,323.358,38.498)"><ellipse ry="43.8455" rx="52.5545" cy="0" cx="0" stroke-linejoin="miter" stroke-linecap="butt" stroke-width="6" stroke-opacity="0" stroke="#04396d" fill="#7ad5e8" fill-opacity="0" /></g></g></g></g></g></g></g></g></g></g></svg>