<?xml version="1.0" encoding="UTF-8"?><svg id="Layer_1" xmlns="http://www.w3.org/2000/svg" viewBox="0 0 600 600"><defs><style>.cls-1{fill:none;stroke:#4d4d4d;stroke-width:43.42px;}</style></defs><path class="cls-1" d="M532.02,97.33c1.09-.02,3.33.12,5.76.7,2.5.6,4.34,1.47,5.41,2.33,1.55,1.25,2.28,3.08,2.79,6.09.52,3.06,1.2,10.44.7,15.75-7.1,74.57-37.96,256.45-53.71,340.65-6.46,34.53-17.82,39.22-22.51,39.66-10.5.97-20.23-2.39-31.28-8.88-5.56-3.27-11.2-7.18-17.34-11.54-6.03-4.29-12.6-9.04-19.5-13.57-20.82-13.65-37.13-24.72-53.34-35.75-16.2-11.03-32.32-22.04-52.7-35.47-11.14-7.34-16.17-12.92-18.19-16.8-1.6-3.07-1.54-5.39-.22-8.4,1.66-3.78,5.21-8.25,10.99-14.14,2.81-2.86,5.87-5.79,9.23-9.03,3.3-3.19,6.84-6.6,10.34-10.23,3.27-3.39,34.81-32.32,66.82-62.54,15.8-14.92,31.55-30.02,43.52-42.03,5.96-5.99,11.09-11.33,14.85-15.55,1.87-2.1,3.55-4.08,4.84-5.8.64-.86,1.3-1.8,1.88-2.77.46-.78,1.36-2.38,1.83-4.38.49-2.08.68-5,.24-7.94-.38-2.57-1.44-6.53-4.47-9.95l-1.42-1.42-1.57-1.24c-3.7-2.59-7.69-3.21-10.62-3.23-1.59-.01-3.12.14-4.43.35l-3.12.63c-1.96.45-3.78,1.45-4.25,1.7-.98.52-2.16,1.19-3.47,1.96-2.63,1.56-6.2,3.77-10.67,6.61-8.96,5.69-21.83,14.08-38.54,25.13-33.45,22.11-82.55,55.02-147.27,98.71l-.09.04c-17.94,12.31-32.81,17.34-44.96,17.08-7.13-.15-18.47-2.26-31.72-5.58-12.99-3.26-26.96-7.47-38.94-11.37-15.75-5.12-27.73-8.4-36.19-12.5-4.09-1.98-6.09-3.6-6.98-4.69-.53-.65-.67-1.03-.55-2.01.09-.25.81-2.14,5.21-5.41,4.77-3.54,12.33-7.53,23.17-11.85l.17-.06.17-.09c138.54-60.36,230.83-100.1,276.95-119.28,66.02-27.46,105.63-43.48,130.93-52.66,25.49-9.25,35.3-11.11,42.23-11.23Z"/></svg>