<?xml version="1.0" encoding="UTF-8"?><svg id="Layer_1" xmlns="http://www.w3.org/2000/svg" viewBox="0 0 600 600"><defs><style>.cls-1{fill:#4d4d4d;}.cls-2{fill:none;stroke:#4d4d4d;stroke-width:40.88px;}</style></defs><path class="cls-2" d="M541.57,299.99c0,27.25-.85,54.04-2.5,80.24-2.91,46.26-39.99,82.91-86.28,85.23-48.95,2.46-99.76,3.75-151.85,3.75s-102.9-1.29-151.85-3.75c-46.29-2.32-83.38-38.98-86.28-85.23-1.65-26.19-2.5-52.99-2.5-80.24s.85-54.04,2.5-80.23c2.91-46.26,39.99-82.9,86.28-85.23,48.95-2.46,99.76-3.75,151.85-3.75s102.9,1.29,151.85,3.75c46.29,2.32,83.38,38.98,86.28,85.23,1.65,26.19,2.5,52.97,2.5,80.23Z"/><polygon class="cls-1" points="380.56 294.7 251.91 227.32 251.91 362.07 380.56 294.7"/></svg>